<svg class="toyplot-canvas-Canvas" xmlns:toyplot="http://www.sandia.gov/toyplot" xmlns:xlink="http://www.w3.org/1999/xlink" xmlns="http://www.w3.org/2000/svg" width="800.0px" height="800.0px" viewBox="0 0 800.0 800.0" preserveAspectRatio="xMidYMid meet" style="background-color:transparent;border-color:#292724;border-style:none;border-width:1.0;fill:rgb(16.1%,15.3%,14.1%);fill-opacity:1.0;font-family:Helvetica;font-size:12px;opacity:1.0;stroke:rgb(16.1%,15.3%,14.1%);stroke-opacity:1.0;stroke-width:1.0" id="t47b6b3a7a4384d58985c4be82e4292a5"><g class="toyplot-coordinates-Cartesian" id="t9961c7846bf74c42848ca8746e72fc06"><clipPath id="tc6fc44bdb5524d87b1bee586c8995b2d"><rect x="30.0" y="30.0" width="740.0" height="740.0" /></clipPath><g clip-path="url(#tc6fc44bdb5524d87b1bee586c8995b2d)"><g class="toytree-mark-Toytree" id="taf9bf45a567c47e1b9d300d1775416a8"><g class="toytree-Edges" style="fill:none;stroke:rgb(14.9%,14.9%,14.9%);stroke-linecap:round;stroke-opacity:1;stroke-width:2"><path d="M 51.8 187.4 L 51.8 136.1 L 165.9 136.1" id="31,30" /><path d="M 51.8 187.4 L 51.8 364.0 L 177.2 364.0" id="31,29" /><path d="M 165.9 136.1 L 165.9 167.7 L 287.5 167.7" id="30,28" /><path d="M 177.2 364.0 L 177.2 262.8 L 302.5 262.8" id="29,27" /><path d="M 177.2 364.0 L 177.2 465.3 L 202.2 465.3" id="29,26" /><path d="M 302.5 262.8 L 302.5 294.4 L 400.3 294.4" id="27,25" /><path d="M 202.2 465.3 L 202.2 389.4 L 248.6 389.4" id="26,24" /><path d="M 202.2 465.3 L 202.2 541.2 L 217.3 541.2" id="26,23" /><path d="M 248.6 389.4 L 248.6 421.1 L 373.9 421.1" id="24,22" /><path d="M 217.3 541.2 L 217.3 598.0 L 277.4 598.0" id="23,21" /><path d="M 277.4 598.0 L 277.4 547.8 L 402.8 547.8" id="21,20" /><path d="M 277.4 598.0 L 277.4 648.1 L 402.8 648.1" id="21,19" /><path d="M 402.8 648.1 L 402.8 685.1 L 462.9 685.1" id="19,18" /><path d="M 462.9 685.1 L 462.9 716.7 L 571.9 716.7" id="18,17" /><path d="M 51.8 187.4 L 51.8 62.2 L 177.2 62.2" id="31,16" /><path d="M 165.9 136.1 L 165.9 104.4 L 291.2 104.4" id="30,15" /><path d="M 287.5 167.7 L 287.5 146.6 L 412.8 146.6" id="28,14" /><path d="M 287.5 167.7 L 287.5 188.9 L 412.8 188.9" id="28,13" /><path d="M 302.5 262.8 L 302.5 231.1 L 427.8 231.1" id="27,12" /><path d="M 400.3 294.4 L 400.3 273.3 L 525.6 273.3" id="25,11" /><path d="M 400.3 294.4 L 400.3 315.5 L 525.6 315.5" id="25,10" /><path d="M 248.6 389.4 L 248.6 357.8 L 373.9 357.8" id="24,9" /><path d="M 373.9 421.1 L 373.9 400.0 L 499.3 400.0" id="22,8" /><path d="M 373.9 421.1 L 373.9 442.2 L 499.3 442.2" id="22,7" /><path d="M 217.3 541.2 L 217.3 484.5 L 342.6 484.5" id="23,6" /><path d="M 402.8 547.8 L 402.8 526.7 L 528.1 526.7" id="20,5" /><path d="M 402.8 547.8 L 402.8 568.9 L 528.1 568.9" id="20,4" /><path d="M 402.8 648.1 L 402.8 611.1 L 528.1 611.1" id="19,3" /><path d="M 462.9 685.1 L 462.9 653.4 L 588.2 653.4" id="18,2" /><path d="M 571.9 716.7 L 571.9 695.6 L 697.3 695.6" id="17,1" /><path d="M 571.9 716.7 L 571.9 737.8 L 697.3 737.8" id="17,0" /></g><g class="toytree-AlignEdges" style="stroke:rgb(66.3%,66.3%,66.3%);stroke-dasharray:2, 4;stroke-linecap:round;stroke-opacity:1.0;stroke-width:2"><path d="M 697.3 737.8 L 697.3 737.8" /><path d="M 697.3 695.6 L 697.3 695.6" /><path d="M 697.3 653.4 L 588.2 653.4" /><path d="M 697.3 611.1 L 528.1 611.1" /><path d="M 697.3 568.9 L 528.1 568.9" /><path d="M 697.3 526.7 L 528.1 526.7" /><path d="M 697.3 484.5 L 342.6 484.5" /><path d="M 697.3 442.2 L 499.3 442.2" /><path d="M 697.3 400.0 L 499.3 400.0" /><path d="M 697.3 357.8 L 373.9 357.8" /><path d="M 697.3 315.5 L 525.6 315.5" /><path d="M 697.3 273.3 L 525.6 273.3" /><path d="M 697.3 231.1 L 427.8 231.1" /><path d="M 697.3 188.9 L 412.8 188.9" /><path d="M 697.3 146.6 L 412.8 146.6" /><path d="M 697.3 104.4 L 291.2 104.4" /><path d="M 697.3 62.2 L 177.2 62.2" /></g><g class="toytree-NodeLabels" style="fill:rgb(14.9%,14.9%,14.9%);fill-opacity:1.0;font-size:9px;stroke:none"><g transform="translate(566.94,719.02)"><text>87</text></g><g transform="translate(457.91,687.35)"><text>48</text></g><g transform="translate(395.25,650.40)"><text>100</text></g><g transform="translate(395.25,550.10)"><text>100</text></g><g transform="translate(272.43,600.25)"><text>48</text></g><g transform="translate(366.43,423.41)"><text>100</text></g><g transform="translate(212.27,543.51)"><text>12</text></g><g transform="translate(243.60,391.74)"><text>37</text></g><g transform="translate(395.25,296.73)"><text>78</text></g><g transform="translate(197.23,467.62)"><text>20</text></g><g transform="translate(294.99,265.05)"><text>100</text></g><g transform="translate(282.45,170.04)"><text>97</text></g><g transform="translate(169.66,366.34)"><text>100</text></g><g transform="translate(160.89,138.36)"><text>91</text></g></g><g class="toytree-TipLabels" style="fill:rgb(nan%,nan%,nan%);fill-opacity:nan;font-family:helvetica;font-size:11px;font-weight:normal;stroke:none;white-space:pre"><g transform="translate(697.27,737.84)rotate(0)"><text x="15.00" y="2.81" style="">1OAN</text></g><g transform="translate(697.27,695.61)rotate(0)"><text x="15.00" y="2.81" style="">4GSX</text></g><g transform="translate(697.27,653.38)rotate(0)"><text x="15.00" y="2.81" style="">2I69</text></g><g transform="translate(697.27,611.15)rotate(0)"><text x="15.00" y="2.81" style="">1SVB</text></g><g transform="translate(697.27,568.92)rotate(0)"><text x="15.00" y="2.81" style="">6EGU</text></g><g transform="translate(697.27,526.69)rotate(0)"><text x="15.00" y="2.81" style="">4HJ1</text></g><g transform="translate(697.27,484.46)rotate(0)"><text x="15.00" y="2.81" style="">4OJC_model</text></g><g transform="translate(697.27,442.23)rotate(0)"><text x="15.00" y="2.81" style="">5mf1mono</text></g><g transform="translate(697.27,400.00)rotate(0)"><text x="15.00" y="2.81" style="">6E18</text></g><g transform="translate(697.27,357.77)rotate(0)"><text x="15.00" y="2.81" style="">5ow3</text></g><g transform="translate(697.27,315.54)rotate(0)"><text x="15.00" y="2.81" style="">2ala</text></g><g transform="translate(697.27,273.31)rotate(0)"><text x="15.00" y="2.81" style="">1rer</text></g><g transform="translate(697.27,231.08)rotate(0)"><text x="15.00" y="2.81" style="">3n43</text></g><g transform="translate(697.27,188.85)rotate(0)"><text x="15.00" y="2.81" style="">WP_049937247_Hnatans</text></g><g transform="translate(697.27,146.62)rotate(0)"><text x="15.00" y="2.81" style="">WP_058826362_Haloferax</text></g><g transform="translate(697.27,104.39)rotate(0)"><text x="15.00" y="2.81" style="">fsxA11_monomer</text></g><g transform="translate(697.27,62.16)rotate(0)"><text x="15.00" y="2.81" style="">WP_007110832_Naltunense</text></g></g></g></g><g class="toyplot-coordinates-Axis" id="t2afa43af18bf4ee68b2d15e46b2267c5" transform="translate(50.0,750.0)translate(0,20.0)"><line x1="1.84408765738954" y1="0" x2="647.2747677437455" y2="0" style="" /><g><line x1="647.2747677437455" y1="0" x2="647.2747677437455" y2="-5" style="" /><line x1="555.0703848742662" y1="0" x2="555.0703848742662" y2="-5" style="" /><line x1="462.8660020047868" y1="0" x2="462.8660020047868" y2="-5" style="" /><line x1="370.66161913530726" y1="0" x2="370.66161913530726" y2="-5" style="" /><line x1="278.4572362658279" y1="0" x2="278.4572362658279" y2="-5" style="" /><line x1="186.25285339634846" y1="0" x2="186.25285339634846" y2="-5" style="" /><line x1="94.04847052686897" y1="0" x2="94.04847052686897" y2="-5" style="" /><line x1="1.84408765738954" y1="0" x2="1.84408765738954" y2="-5" style="" /></g><g><g transform="translate(647.2747677437455,6)"><text x="-2.78" y="8.555" style="fill:rgb(16.1%,15.3%,14.1%);fill-opacity:1.0;font-family:helvetica;font-size:10.0px;font-weight:normal;stroke:none;vertical-align:baseline;white-space:pre">0</text></g><g transform="translate(555.0703848742662,6)"><text x="-5.56" y="8.555" style="fill:rgb(16.1%,15.3%,14.1%);fill-opacity:1.0;font-family:helvetica;font-size:10.0px;font-weight:normal;stroke:none;vertical-align:baseline;white-space:pre">74</text></g><g transform="translate(462.8660020047868,6)"><text x="-8.34" y="8.555" style="fill:rgb(16.1%,15.3%,14.1%);fill-opacity:1.0;font-family:helvetica;font-size:10.0px;font-weight:normal;stroke:none;vertical-align:baseline;white-space:pre">147</text></g><g transform="translate(370.66161913530726,6)"><text x="-8.34" y="8.555" style="fill:rgb(16.1%,15.3%,14.1%);fill-opacity:1.0;font-family:helvetica;font-size:10.0px;font-weight:normal;stroke:none;vertical-align:baseline;white-space:pre">221</text></g><g transform="translate(278.4572362658279,6)"><text x="-8.34" y="8.555" style="fill:rgb(16.1%,15.3%,14.1%);fill-opacity:1.0;font-family:helvetica;font-size:10.0px;font-weight:normal;stroke:none;vertical-align:baseline;white-space:pre">294</text></g><g transform="translate(186.25285339634846,6)"><text x="-8.34" y="8.555" style="fill:rgb(16.1%,15.3%,14.1%);fill-opacity:1.0;font-family:helvetica;font-size:10.0px;font-weight:normal;stroke:none;vertical-align:baseline;white-space:pre">368</text></g><g transform="translate(94.04847052686897,6)"><text x="-8.34" y="8.555" style="fill:rgb(16.1%,15.3%,14.1%);fill-opacity:1.0;font-family:helvetica;font-size:10.0px;font-weight:normal;stroke:none;vertical-align:baseline;white-space:pre">441</text></g><g transform="translate(1.84408765738954,6)"><text x="-8.34" y="8.555" style="fill:rgb(16.1%,15.3%,14.1%);fill-opacity:1.0;font-family:helvetica;font-size:10.0px;font-weight:normal;stroke:none;vertical-align:baseline;white-space:pre">515</text></g></g><g class="toyplot-coordinates-Axis-coordinates" style="visibility:hidden" transform=""><line x1="0" x2="0" y1="-3.0" y2="4.5" style="stroke:rgb(43.9%,50.2%,56.5%);stroke-opacity:1.0;stroke-width:1.0" /><text x="0" y="-6" style="alignment-baseline:alphabetic;fill:rgb(43.9%,50.2%,56.5%);fill-opacity:1.0;font-size:10px;font-weight:normal;stroke:none;text-anchor:middle" /></g></g></g></svg>