<svg class="toyplot-canvas-Canvas" xmlns:toyplot="http://www.sandia.gov/toyplot" xmlns:xlink="http://www.w3.org/1999/xlink" xmlns="http://www.w3.org/2000/svg" width="800.0px" height="800.0px" viewBox="0 0 800.0 800.0" preserveAspectRatio="xMidYMid meet" style="background-color:transparent;border-color:#292724;border-style:none;border-width:1.0;fill:rgb(16.1%,15.3%,14.1%);fill-opacity:1.0;font-family:Helvetica;font-size:12px;opacity:1.0;stroke:rgb(16.1%,15.3%,14.1%);stroke-opacity:1.0;stroke-width:1.0" id="t89b8d7af8a10461ba78e317bdb6d24b3"><g class="toyplot-coordinates-Cartesian" id="t514939adcabe450db05ba0b6f907e2a8"><clipPath id="t54faeb0f8cae4119b1bde16c2b394e8a"><rect x="30.0" y="30.0" width="740.0" height="740.0" /></clipPath><g clip-path="url(#t54faeb0f8cae4119b1bde16c2b394e8a)"><g class="toytree-mark-Toytree" id="tb1db6a40a7e14aa7bdf4f2178689f4e9"><g class="toytree-Edges" style="fill:none;stroke:rgb(14.9%,14.9%,14.9%);stroke-linecap:round;stroke-opacity:1;stroke-width:2"><path d="M 51.5 234.6 L 51.5 83.3 L 152.8 83.3" id="31,30" /><path d="M 51.5 234.6 L 51.5 183.6 L 152.8 183.6" id="31,29" /><path d="M 51.5 234.6 L 51.5 437.0 L 111.3 437.0" id="31,28" /><path d="M 152.8 183.6 L 152.8 220.5 L 253.0 220.5" id="29,27" /><path d="M 111.3 437.0 L 111.3 336.7 L 212.5 336.7" id="28,26" /><path d="M 111.3 437.0 L 111.3 537.2 L 186.2 537.2" id="28,25" /><path d="M 253.0 220.5 L 253.0 252.2 L 354.2 252.2" id="27,24" /><path d="M 186.2 537.2 L 186.2 437.0 L 287.4 437.0" id="25,23" /><path d="M 186.2 537.2 L 186.2 637.5 L 287.4 637.5" id="25,22" /><path d="M 287.4 437.0 L 287.4 473.9 L 366.4 473.9" id="23,21" /><path d="M 287.4 637.5 L 287.4 590.0 L 388.6 590.0" id="22,20" /><path d="M 287.4 637.5 L 287.4 685.1 L 388.6 685.1" id="22,19" /><path d="M 366.4 473.9 L 366.4 505.6 L 454.4 505.6" id="21,18" /><path d="M 388.6 685.1 L 388.6 716.7 L 489.9 716.7" id="19,17" /><path d="M 152.8 83.3 L 152.8 62.2 L 254.0 62.2" id="30,16" /><path d="M 152.8 83.3 L 152.8 104.4 L 254.0 104.4" id="30,15" /><path d="M 152.8 183.6 L 152.8 146.6 L 254.0 146.6" id="29,14" /><path d="M 253.0 220.5 L 253.0 188.9 L 354.2 188.9" id="27,13" /><path d="M 354.2 252.2 L 354.2 231.1 L 455.4 231.1" id="24,12" /><path d="M 354.2 252.2 L 354.2 273.3 L 455.4 273.3" id="24,11" /><path d="M 212.5 336.7 L 212.5 315.5 L 313.7 315.5" id="26,10" /><path d="M 212.5 336.7 L 212.5 357.8 L 313.7 357.8" id="26,9" /><path d="M 287.4 437.0 L 287.4 400.0 L 388.6 400.0" id="23,8" /><path d="M 366.4 473.9 L 366.4 442.2 L 467.6 442.2" id="21,7" /><path d="M 454.4 505.6 L 454.4 484.5 L 555.7 484.5" id="18,6" /><path d="M 454.4 505.6 L 454.4 526.7 L 555.7 526.7" id="18,5" /><path d="M 388.6 590.0 L 388.6 568.9 L 489.9 568.9" id="20,4" /><path d="M 388.6 590.0 L 388.6 611.1 L 489.9 611.1" id="20,3" /><path d="M 388.6 685.1 L 388.6 653.4 L 489.9 653.4" id="19,2" /><path d="M 489.9 716.7 L 489.9 695.6 L 591.1 695.6" id="17,1" /><path d="M 489.9 716.7 L 489.9 737.8 L 591.1 737.8" id="17,0" /></g><g class="toytree-AlignEdges" style="stroke:rgb(66.3%,66.3%,66.3%);stroke-dasharray:2, 4;stroke-linecap:round;stroke-opacity:1.0;stroke-width:2"><path d="M 591.1 737.8 L 591.1 737.8" /><path d="M 591.1 695.6 L 591.1 695.6" /><path d="M 591.1 653.4 L 489.9 653.4" /><path d="M 591.1 611.1 L 489.9 611.1" /><path d="M 591.1 568.9 L 489.9 568.9" /><path d="M 591.1 526.7 L 555.7 526.7" /><path d="M 591.1 484.5 L 555.7 484.5" /><path d="M 591.1 442.2 L 467.6 442.2" /><path d="M 591.1 400.0 L 388.6 400.0" /><path d="M 591.1 357.8 L 313.7 357.8" /><path d="M 591.1 315.5 L 313.7 315.5" /><path d="M 591.1 273.3 L 455.4 273.3" /><path d="M 591.1 231.1 L 455.4 231.1" /><path d="M 591.1 188.9 L 354.2 188.9" /><path d="M 591.1 146.6 L 254.0 146.6" /><path d="M 591.1 104.4 L 254.0 104.4" /><path d="M 591.1 62.2 L 254.0 62.2" /></g><g class="toytree-NodeLabels" style="fill:rgb(14.9%,14.9%,14.9%);fill-opacity:1.0;font-size:9px;stroke:none"><g transform="translate(482.36,719.02)"><text>100</text></g><g transform="translate(449.43,507.87)"><text>87</text></g><g transform="translate(381.13,687.35)"><text>100</text></g><g transform="translate(381.13,592.33)"><text>100</text></g><g transform="translate(361.36,476.20)"><text>78</text></g><g transform="translate(279.90,639.84)"><text>100</text></g><g transform="translate(279.90,439.25)"><text>100</text></g><g transform="translate(346.71,254.50)"><text>100</text></g><g transform="translate(181.17,539.55)"><text>74</text></g><g transform="translate(204.99,338.95)"><text>100</text></g><g transform="translate(247.98,222.82)"><text>99</text></g><g transform="translate(106.26,439.25)"><text>59</text></g><g transform="translate(145.26,185.87)"><text>100</text></g><g transform="translate(145.26,85.58)"><text>100</text></g></g><g class="toytree-TipLabels" style="fill:rgb(nan%,nan%,nan%);fill-opacity:nan;font-family:helvetica;font-size:11px;font-weight:normal;stroke:none;white-space:pre"><g transform="translate(591.09,737.84)rotate(0)"><text x="15.00" y="2.81" style="">2ala</text></g><g transform="translate(591.09,695.61)rotate(0)"><text x="15.00" y="2.81" style="">1rer</text></g><g transform="translate(591.09,653.38)rotate(0)"><text x="15.00" y="2.81" style="">3n43</text></g><g transform="translate(591.09,611.15)rotate(0)"><text x="15.00" y="2.81" style="">6E18</text></g><g transform="translate(591.09,568.92)rotate(0)"><text x="15.00" y="2.81" style="">5mf1mono</text></g><g transform="translate(591.09,526.69)rotate(0)"><text x="15.00" y="2.81" style="">WP_049937247_Hnatans</text></g><g transform="translate(591.09,484.46)rotate(0)"><text x="15.00" y="2.81" style="">WP_058826362_Haloferax</text></g><g transform="translate(591.09,442.23)rotate(0)"><text x="15.00" y="2.81" style="">fsxA11_monomer</text></g><g transform="translate(591.09,400.00)rotate(0)"><text x="15.00" y="2.81" style="">WP_007110832_Naltunense</text></g><g transform="translate(591.09,357.77)rotate(0)"><text x="15.00" y="2.81" style="">5ow3</text></g><g transform="translate(591.09,315.54)rotate(0)"><text x="15.00" y="2.81" style="">4AJC_model</text></g><g transform="translate(591.09,273.31)rotate(0)"><text x="15.00" y="2.81" style="">4GSX</text></g><g transform="translate(591.09,231.08)rotate(0)"><text x="15.00" y="2.81" style="">1AAN</text></g><g transform="translate(591.09,188.85)rotate(0)"><text x="15.00" y="2.81" style="">2I69</text></g><g transform="translate(591.09,146.62)rotate(0)"><text x="15.00" y="2.81" style="">1SVB</text></g><g transform="translate(591.09,104.39)rotate(0)"><text x="15.00" y="2.81" style="">6EGA</text></g><g transform="translate(591.09,62.16)rotate(0)"><text x="15.00" y="2.81" style="">4HJ1</text></g></g></g></g><g class="toyplot-coordinates-Axis" id="t81af70de9cab43dc994c17736f458a71" transform="translate(50.0,750.0)translate(0,20.0)"><line x1="1.5415789650025216" y1="0" x2="541.0942167158981" y2="0" style="" /><g><line x1="541.0942167158981" y1="0" x2="541.0942167158981" y2="-5" style="" /><line x1="464.01526846577025" y1="0" x2="464.01526846577025" y2="-5" style="" /><line x1="386.93632021564224" y1="0" x2="386.93632021564224" y2="-5" style="" /><line x1="309.8573719655143" y1="0" x2="309.8573719655143" y2="-5" style="" /><line x1="232.77842371538637" y1="0" x2="232.77842371538637" y2="-5" style="" /><line x1="155.69947546525844" y1="0" x2="155.69947546525844" y2="-5" style="" /><line x1="78.6205272151305" y1="0" x2="78.6205272151305" y2="-5" style="" /><line x1="1.5415789650025216" y1="0" x2="1.5415789650025216" y2="-5" style="" /></g><g><g transform="translate(541.0942167158981,6)"><text x="-2.78" y="8.555" style="fill:rgb(16.1%,15.3%,14.1%);fill-opacity:1.0;font-family:helvetica;font-size:10.0px;font-weight:normal;stroke:none;vertical-align:baseline;white-space:pre">0</text></g><g transform="translate(464.01526846577025,6)"><text x="-5.56" y="8.555" style="fill:rgb(16.1%,15.3%,14.1%);fill-opacity:1.0;font-family:helvetica;font-size:10.0px;font-weight:normal;stroke:none;vertical-align:baseline;white-space:pre">76</text></g><g transform="translate(386.93632021564224,6)"><text x="-8.34" y="8.555" style="fill:rgb(16.1%,15.3%,14.1%);fill-opacity:1.0;font-family:helvetica;font-size:10.0px;font-weight:normal;stroke:none;vertical-align:baseline;white-space:pre">152</text></g><g transform="translate(309.8573719655143,6)"><text x="-8.34" y="8.555" style="fill:rgb(16.1%,15.3%,14.1%);fill-opacity:1.0;font-family:helvetica;font-size:10.0px;font-weight:normal;stroke:none;vertical-align:baseline;white-space:pre">228</text></g><g transform="translate(232.77842371538637,6)"><text x="-8.34" y="8.555" style="fill:rgb(16.1%,15.3%,14.1%);fill-opacity:1.0;font-family:helvetica;font-size:10.0px;font-weight:normal;stroke:none;vertical-align:baseline;white-space:pre">305</text></g><g transform="translate(155.69947546525844,6)"><text x="-8.34" y="8.555" style="fill:rgb(16.1%,15.3%,14.1%);fill-opacity:1.0;font-family:helvetica;font-size:10.0px;font-weight:normal;stroke:none;vertical-align:baseline;white-space:pre">381</text></g><g transform="translate(78.6205272151305,6)"><text x="-8.34" y="8.555" style="fill:rgb(16.1%,15.3%,14.1%);fill-opacity:1.0;font-family:helvetica;font-size:10.0px;font-weight:normal;stroke:none;vertical-align:baseline;white-space:pre">457</text></g><g transform="translate(1.5415789650025216,6)"><text x="-8.34" y="8.555" style="fill:rgb(16.1%,15.3%,14.1%);fill-opacity:1.0;font-family:helvetica;font-size:10.0px;font-weight:normal;stroke:none;vertical-align:baseline;white-space:pre">533</text></g></g><g class="toyplot-coordinates-Axis-coordinates" style="visibility:hidden" transform=""><line x1="0" x2="0" y1="-3.0" y2="4.5" style="stroke:rgb(43.9%,50.2%,56.5%);stroke-opacity:1.0;stroke-width:1.0" /><text x="0" y="-6" style="alignment-baseline:alphabetic;fill:rgb(43.9%,50.2%,56.5%);fill-opacity:1.0;font-size:10px;font-weight:normal;stroke:none;text-anchor:middle" /></g></g></g></svg>